<?xml version="1.0" standalone="no"?>
<!DOCTYPE svg PUBLIC "-//W3C//DTD SVG 20010904//EN"
 "http://www.w3.org/TR/2001/REC-SVG-20010904/DTD/svg10.dtd">
<svg version="1.0" xmlns="http://www.w3.org/2000/svg"
 width="350.000000pt" height="350.000000pt" viewBox="0 0 350.000000 350.000000"
 preserveAspectRatio="xMidYMid meet">
<metadata>
Created by potrace 1.11, written by Peter Selinger 2001-2013
</metadata>
<g transform="translate(0.000000,350.000000) scale(0.100000,-0.100000)"
fill="#000000" stroke="none">
<path d="M0 1750 l0 -1750 514 0 513 0 -33 35 c-65 69 -89 219 -81 505 7 246
37 440 99 629 39 121 114 171 255 171 51 0 67 -4 84 -21 26 -26 23 -47 -32
-276 -35 -144 -70 -332 -69 -373 1 -8 11 10 24 40 100 239 250 448 390 545
107 74 249 105 329 71 18 -7 45 -27 59 -45 43 -50 45 -103 13 -293 -28 -169
-28 -207 2 -240 22 -25 80 -22 127 5 l40 22 27 141 c15 78 39 182 54 230 44
144 112 194 264 194 49 0 65 -4 82 -21 27 -27 24 -52 -31 -274 -34 -141 -46
-202 -65 -345 -4 -24 13 2 55 89 122 252 274 434 423 506 88 42 172 55 230 36
52 -17 94 -70 103 -128 6 -42 -6 -169 -22 -229 -5 -19 0 -22 37 -28 24 -4 58
-18 76 -32 l33 -25 0 1305 0 1306 -1750 0 -1750 0 0 -1750z"/>
<path d="M1621 874 c-97 -81 -224 -347 -306 -640 -37 -130 -71 -205 -103 -223
-11 -7 165 -10 554 -11 l571 0 -33 36 c-50 52 -83 191 -84 352 0 34 -2 62 -3
62 -2 0 -30 -9 -63 -21 -68 -24 -203 -30 -271 -10 -23 6 -61 26 -85 44 -84 64
-114 159 -96 305 5 46 7 95 4 108 -8 32 -45 32 -85 -2z"/>
<path d="M2931 874 c-97 -81 -235 -371 -306 -645 -33 -124 -59 -183 -93 -209
-25 -20 -25 -20 472 -20 l496 0 0 342 0 342 -28 -45 c-100 -156 -272 -221
-384 -143 -60 42 -80 95 -79 215 1 55 4 111 7 124 7 30 -12 65 -36 65 -10 0
-32 -11 -49 -26z"/>
</g>
</svg>
